<?xml version="1.0"?>
<svg xmlns="http://www.w3.org/2000/svg" id="Capa_1" enable-background="new 0 0 516.851 516.851" height="512px" viewBox="0 0 516.851 516.851" width="512px" class=""><g><g><g><circle cx="450.989" cy="448.568" fill="#e5e1e5" r="58.363" data-original="#E5E1E5" class=""/><path d="m460.971 391.073c11.308 10.644 18.38 25.739 18.38 42.495 0 32.233-26.13 58.363-58.363 58.363-3.405 0-6.737-.308-9.983-.868 10.446 9.832 24.505 15.868 39.983 15.868 32.233 0 58.363-26.13 58.363-58.363 0-28.828-20.906-52.757-48.38-57.495z" fill="#c9bfc8" data-original="#C9BFC8" class=""/><g><path d="m170.49 282.04-9.538 46.589c-.817 3.99-3.557 7.315-7.316 8.878l-96.95 40.298v43.711l133.934-53.133c6.501-2.579 11.609-7.79 14.061-14.344l15.024-40.159z" fill="#fed2a4" data-original="#FED2A4" class=""/><path d="m170.49 282.04-.797 3.893 20.012 12.947-15.024 40.159c-2.452 6.554-7.56 11.764-14.061 14.344l-103.934 41.232v26.901l133.934-53.133c6.501-2.579 11.609-7.79 14.061-14.344l15.024-40.159z" fill="#ffbd86" data-original="#FFBD86" class=""/><path d="m177.691 237.795 80.638 33.839 60.366 45.476c7.355 5.541 12.169 13.815 13.353 22.951l15.243 117.651h-43.663l-22.289-113.316-95.414-47.241z" fill="#fed2a4" data-original="#FED2A4" class=""/><path d="m332.047 340.061c-1.184-9.136-5.997-17.41-13.352-22.951l-60.366-45.476-80.638-33.839 1.485 10.708 55.121 23.131 60.366 45.476c7.355 5.541 12.169 13.815 13.353 22.951l15.243 117.651h24.031z" fill="#ffbd86" data-original="#FFBD86" class=""/><path d="m258.329 271.634 54.047-128.108c4.759-11.28-.221-24.308-11.288-29.53l-26.688-12.593c-14.729-6.95-32.288-3.264-42.971 9.022-5.533 6.363-9.914 13.642-12.945 21.508l-40.793 105.862z" fill="#fe9738" data-original="#FE9738" class="" style="fill:#5EA8F9" data-old_color="#fe9738"/><path d="m301.088 113.996-26.688-12.593c-2.953-1.39-6.081-2.379-9.292-2.937-3.027-.525-6.097-.668-9.153-.422.216 17.738 12.3 33.791 30.309 38.265.025.006.049.012.074.018 3.672.905 5.718 4.808 4.248 8.292l-20.805 49.314c-14.617 34.648-54.527 50.919-89.203 36.368l-2.165 5.62-.722 1.874 80.638 33.839 54.047-128.109c4.759-11.279-.222-24.307-11.288-29.529z" fill="#fe860a" data-original="#FE860A" class="active-path" style="fill:#437EBF" data-old_color="#fe860a"/><path d="m311.419 145.794 25.81 17.372h67.408c9.381 0 17.276 7.026 18.373 16.349 1.262 10.733-6.895 20.262-17.688 20.662l-69.459 2.574c-4.195.155-8.334-1.008-11.833-3.325l-27.541-18.243z" fill="#fed2a4" data-original="#FED2A4" class=""/><path d="m303.627 457.712h43.663l22.36 20.405c3.441 3.14 5.401 7.584 5.401 12.243 0 9.151-7.414 16.57-16.559 16.57h-35.242c-10.837 0-19.623-8.791-19.623-19.635z" fill="#0067c5" data-original="#0067C5" class="" style="fill:#0067C5"/><path d="m369.65 478.117-22.36-20.405h-24.473l22.36 20.405c3.441 3.14 5.401 7.584 5.401 12.243 0 9.151-7.414 16.57-16.559 16.57h24.473c9.145 0 16.559-7.419 16.559-16.57 0-4.659-1.96-9.103-5.401-12.243z" fill="#0055a3" data-original="#0055A3" class=""/><path d="m56.686 377.824v43.692l-20.391 22.375c-3.138 3.443-7.579 5.405-12.235 5.405-9.145 0-16.559-7.419-16.559-16.57v-41.111c0-7.616 6.17-13.79 13.781-13.79h35.404z" fill="#0067c5" data-original="#0067C5" class="" style="fill:#0067C5"/><path d="m24.059 422.241c-9.145 0-16.559-7.419-16.559-16.57v27.054c0 9.151 7.414 16.57 16.559 16.57 4.656 0 9.098-1.962 12.235-5.405l20.391-22.375v-27.055l-20.391 22.375c-3.137 3.444-7.579 5.406-12.235 5.406z" fill="#0055a3" data-original="#0055A3" class=""/><g><path d="m193.108 167.825-19.288.735-41.69 41.189c-7.995 7.899-20.869 7.858-28.814-.092-8.109-8.114-7.963-21.308.323-29.241l43.61-41.754c5.316-5.089 12.281-8.103 19.63-8.492l26.297-1.392z" fill="#fed2a4" data-original="#FED2A4" class=""/><path d="m193.176 128.778-.067 39.047 32.328-1.232c6.274-.239 11.572-4.737 12.825-10.89l3.693-18.129c1.186-5.822-3.446-11.196-9.379-10.882z" fill="#fe860a" data-original="#FE860A" class="active-path" style="fill:#437EBF" data-old_color="#fe860a"/></g><path d="m337.228 163.167-25.81-17.372-14.93 35.388 27.541 18.243c1.727 1.144 3.609 2.003 5.577 2.565z" fill="#fe9738" data-original="#FE9738" class="" style="fill:#5EA8F9" data-old_color="#fe9738"/><path d="m203.817 366.536 54.512-94.902-80.638-33.839-32.915 80.666c-1.859 4.555-.816 9.779 2.648 13.274l37.007 37.329c5.712 5.762 15.346 4.506 19.386-2.528z" fill="#0067c5" data-original="#0067C5" class="" style="fill:#0067C5"/><path d="m232.357 260.736-26.968 46.95c-12.38 21.553-41.88 25.405-59.38 7.754l-1.233 3.023c-1.858 4.555-.817 9.779 2.647 13.273l37.011 37.333c5.712 5.762 15.342 4.505 19.383-2.531l54.512-94.902z" fill="#0055a3" data-original="#0055A3" class=""/><path d="m312.527 294.992-54.198-23.357-34.861 60.691 36.756 25.716c4.948 3.462 11.68 2.817 15.879-1.521l40.389-41.72c5.975-6.173 3.926-16.409-3.965-19.809z" fill="#0067c5" data-original="#0067C5" class="" style="fill:#0067C5"/><path d="m312.527 294.992-4.164-1.795-11.492 11.87c-16.166 16.699-42.067 19.181-61.111 5.858l-12.292 21.4 36.756 25.716c4.949 3.462 11.679 2.817 15.88-1.522l40.384-41.715c5.975-6.172 3.927-16.413-3.961-19.812z" fill="#0055a3" data-original="#0055A3" class=""/><g><g><path d="m283.642 114.555c-21.408-5.318-34.448-26.996-29.127-48.419l6.424-25.859c5.321-21.423 26.989-34.478 48.397-29.159 21.408 5.318 34.448 26.996 29.127 48.419l-6.424 25.859c-5.321 21.422-26.989 34.477-48.397 29.159z" fill="#fed2a4" data-original="#FED2A4" class=""/><path d="m319.408 15.139c4.895 8.604 6.63 19.028 4.055 29.397l-6.423 25.859c-5.321 21.423-26.989 34.478-48.397 29.159-3.614-.898-6.982-2.272-10.072-4.022 5.218 9.172 14.026 16.278 25.072 19.022 21.408 5.318 43.076-7.737 48.397-29.159l6.423-25.859c4.423-17.806-3.847-35.779-19.055-44.397z" fill="#ffbd86" data-original="#FFBD86" class=""/><path d="m309.336 11.117c-21.408-5.318-43.076 7.736-48.397 29.159l-3.212 12.93 13.802 9.162c4.22 2.801 9.859 2.079 13.235-1.695l5.17-5.78c3.261-3.645 8.655-4.459 12.848-1.94l32.469 19.512 3.212-12.93c5.321-21.421-7.719-43.099-29.127-48.418z" fill="#685e68" data-original="#685E68" class=""/><path d="m338.983 57.082c2.764-15.311-3.463-32.666-19.576-41.943 9.139 13.713 3.477 33.383-.451 47.535l16.294 9.792c.658-2.848 3.173-12.312 3.733-15.384z" fill="#554e56" data-original="#554E56" class=""/></g></g></g></g><path d="m374.706 472.577-20.33-18.551-14.888-114.934c-1.281-9.835-6.115-18.973-13.421-25.593 1.37-3.484 1.752-7.333.997-11.109-1.274-6.372-5.599-11.712-11.569-14.285l-54.11-23.32c-.004-.002-.009-.004-.013-.005l-.054-.023c-.03-.013-.057-.029-.086-.041l-73.925-31.013 22.737-59.016 26.367-1.005c4.139-.158 7.367-3.641 7.209-7.78s-3.629-7.351-7.78-7.209l-35.219 1.343.042-24.141 44.031-2.332c4.136-.219 7.312-3.75 7.093-7.886-.218-4.136-3.755-7.323-7.886-7.093l-9.824.52c.962-1.288 1.962-2.548 3.014-3.76 4.954-5.697 11.84-9.168 19.26-9.809 6.271 7.807 15.039 13.705 25.483 16.3 3.819.949 7.681 1.418 11.518 1.418 2.516 0 5.016-.227 7.49-.627 5.347 4.196 7.352 11.517 4.62 17.992l-43.392 102.858c-1.61 3.816.179 8.215 3.995 9.825 3.732 1.574 8.201-.13 9.825-3.995l23.994-56.877 20.004 13.251c4.545 3.011 9.784 4.587 15.212 4.587.95 0 69.461-2.555 70.5-2.594 7.227-.268 14.071-3.572 18.778-9.066 4.71-5.498 6.926-12.775 6.081-19.966-1.54-13.097-12.641-22.973-25.821-22.973h-65.12l-18.991-12.783c2.536-8.924.815-18.3-4.298-25.612.506-.28 1.017-.545 1.515-.845 10.856-6.541 18.518-16.919 21.574-29.223l3.21-12.924c.006-.023.011-.045.017-.068l3.197-12.867c6.31-25.402-9.211-51.199-34.598-57.506-12.298-3.056-25.052-1.135-35.909 5.406-10.856 6.541-18.518 16.919-21.575 29.224l-6.423 25.859c-2.332 9.386-1.675 18.824 1.352 27.315-8.772 2.103-16.747 6.875-22.82 13.86-3.042 3.503-5.794 7.287-8.19 11.262-.653 1.09-1.278 2.197-1.879 3.31l-49.217 2.606c-9.138.484-17.809 4.234-24.417 10.561l-43.613 41.757c-5.477 5.245-8.54 12.308-8.624 19.888-.083 7.58 2.822 14.708 8.183 20.073 5.436 5.439 12.596 8.162 19.76 8.161 7.102 0 14.207-2.677 19.631-8.036l39.617-39.141 16.712-.637-22.981 59.649c-.001.002-.002.004-.003.007l-32.915 80.666c-3 7.353-1.325 15.748 4.267 21.388l30.272 30.535-108.191 42.923v-27.671l63.81-26.521c3.825-1.59 5.637-5.979 4.047-9.805-1.59-3.824-5.979-5.636-9.804-4.047l-67.108 27.893h-33.845c-11.735 0-21.281 9.551-21.281 21.29v41.11c0 13.272 10.793 24.07 24.059 24.07 6.75 0 13.231-2.862 17.779-7.854l19.22-21.089 124.219-49.284c3.236 1.413 6.899 1.93 10.447 1.467 6.176-.807 11.496-4.365 14.597-9.764l15.567-27.101 30.037 21.015c3.457 2.418 7.423 3.602 11.363 3.602 3.642 0 7.251-1.033 10.421-3.016l18.419 93.651v28.872c0 14.963 12.167 27.136 27.123 27.136h35.242c13.266 0 24.059-10.798 24.059-24.07-.001-6.752-2.86-13.233-7.846-17.783zm-31.307-301.91h61.238c5.576 0 10.272 4.181 10.924 9.724.363 3.091-.551 6.094-2.575 8.456-2.021 2.358-4.841 3.72-7.942 3.835l-66.449 2.462zm-14.49-4.059-4.699 23.941-18.394-12.184 8.97-21.263zm-60.691-124.523c2.091-8.417 7.333-15.518 14.758-19.992 7.448-4.488 16.197-5.772 24.552-3.697 18.11 4.499 29.304 24.406 22.89 42.416l-23.773-14.287c-7.269-4.368-16.649-2.951-22.3 3.368l-5.171 5.78c-.886.991-2.388 1.181-3.496.447l-9.396-6.237zm-6.424 25.859.647-2.606 4.939 3.279c7.276 4.83 17.152 3.565 22.972-2.943l5.171-5.78c.86-.961 2.288-1.177 3.395-.512l27.717 16.657-1.875 7.549c-4.164 17.071-22.231 28.006-39.31 23.688-17.36-4.313-27.971-21.957-23.656-39.332zm-76.173 92.661-12.086.461c-1.874.071-3.652.842-4.985 2.159l-41.69 41.189c-5.044 4.982-13.226 4.958-18.238-.058-2.485-2.487-3.833-5.791-3.794-9.304s1.459-6.787 3.999-9.218l43.613-41.757c4.015-3.843 9.284-6.122 14.837-6.416l18.387-.974zm-136.44 258.011-18.43 20.222c-1.712 1.879-4.151 2.957-6.692 2.957-4.995 0-9.059-4.069-9.059-9.07v-41.11c0-3.469 2.817-6.29 6.281-6.29h27.9zm167.74-89.95c-.003.005-.006.01-.009.015l-19.598 34.12c-1.026 1.787-2.653 2.246-3.532 2.36-.878.119-2.571.089-4.024-1.377l-37.007-37.329c-1.35-1.361-1.754-3.388-1.03-5.16l30.052-73.65 65.825 27.615zm60.229 15.99c-.021.021-.04.042-.061.063l-6.375 6.585c-1.646 1.7-4.25 1.949-6.191.592l-31.135-21.783 28.113-48.943 48.057 20.711c2.081.896 2.649 2.712 2.796 3.45s.321 2.629-1.251 4.253l-.321.332c-.043.042-.084.087-.126.13zm13.407 7.717 26.191-27.054c4.27 4.175 7.089 9.74 7.866 15.706l14.144 109.187h-28.958zm67.935 147.057h-35.242c-6.685 0-12.123-5.444-12.123-12.136v-22.084h33.253l20.215 18.446c1.879 1.715 2.957 4.158 2.957 6.703-.001 5.002-4.065 9.071-9.06 9.071zm92.496-116.725c-36.316 0-65.862 29.546-65.862 65.863 0 36.316 29.546 65.862 65.862 65.862 36.317 0 65.863-29.546 65.863-65.862 0-36.317-29.546-65.863-65.863-65.863zm0 116.725c-28.045 0-50.862-22.816-50.862-50.862s22.817-50.863 50.862-50.863c28.046 0 50.863 22.817 50.863 50.863s-22.817 50.862-50.863 50.862z" data-original="#000000" class="" style="fill:#000000"/></g></g> </svg>
